<svg viewBox="0 0 126.24 102.59" xmlns="http://www.w3.org/2000/svg"><path d="m40.58 115.3c47.64 0 73.69-39.47 73.69-73.69 0-1.12 0-2.24-.07-3.35a52.7 52.7 0 0 0 12.92-13.41 51.7 51.7 0 0 1 -14.87 4.08 26 26 0 0 0 11.38-14.33 51.9 51.9 0 0 1 -16.45 6.29 25.92 25.92 0 0 0 -44.13 23.62 73.53 73.53 0 0 1 -53.38-27.06 25.92 25.92 0 0 0 8 34.58 25.71 25.71 0 0 1 -11.67-3.25v.33a25.91 25.91 0 0 0 20.73 25.39 25.86 25.86 0 0 1 -11.7.44 25.93 25.93 0 0 0 24.2 18 52 52 0 0 1 -32.17 11.06 52.72 52.72 0 0 1 -6.18-.36 73.32 73.32 0 0 0 39.7 11.63" fill="#1da1f2" transform="translate(-.88 -12.7)"/></svg>