<?xml version="1.0" encoding="utf-8"?>
<!-- Svg Vector Icons : http://www.onlinewebfonts.com/icon -->
<!DOCTYPE svg PUBLIC "-//W3C//DTD SVG 1.1//EN" "http://www.w3.org/Graphics/SVG/1.1/DTD/svg11.dtd">
<svg version="1.1" xmlns="http://www.w3.org/2000/svg" xmlns:xlink="http://www.w3.org/1999/xlink" x="0px" y="0px" viewBox="0 0 256 256" enable-background="new 0 0 256 256" xml:space="preserve">
<metadata> Svg Vector Icons : http://www.onlinewebfonts.com/icon </metadata>
<g><g><path fill="#000000" d="M222.9,254.4H33.1c-14.6,0-24.8-13.1-22.8-28.8L32.1,77.8c1.2-10.1,11.3-18.1,22.6-18.1h12.5C68.7,22,95.1,1.6,127.5,1.6c32.5,0,58.9,20.4,60.3,58.1h13.4c11.2,0,21.3,8,22.6,18.1l21.9,147.7C247.7,241.3,237.5,254.4,222.9,254.4L222.9,254.4L222.9,254.4z M58.5,102c0,8.2,6.7,14.9,14.9,14.9s14.9-6.7,14.9-14.9c0-8.2-6.7-14.9-14.9-14.9S58.5,93.7,58.5,102L58.5,102z M127.6,12.7c-27.2,0-49.4,15.4-50.9,47h101.7C177,28.1,154.8,12.7,127.6,12.7L127.6,12.7L127.6,12.7z M183.4,87c-8.2,0-14.9,6.7-14.9,14.9c0,8.2,6.7,14.9,14.9,14.9s14.9-6.7,14.9-14.9C198.3,93.7,191.6,87,183.4,87z"/></g></g>
</svg>